<?xml version="1.0" encoding="UTF-8" standalone="no"?>
<svg
   xmlns:dc="http://purl.org/dc/elements/1.1/"
   xmlns:cc="http://creativecommons.org/ns#"
   xmlns:rdf="http://www.w3.org/1999/02/22-rdf-syntax-ns#"
   xmlns:svg="http://www.w3.org/2000/svg"
   xmlns="http://www.w3.org/2000/svg"
   xmlns:sodipodi="http://sodipodi.sourceforge.net/DTD/sodipodi-0.dtd"
   xmlns:inkscape="http://www.inkscape.org/namespaces/inkscape"
   version="1.1"
   id="Layer_1"
   x="0px"
   y="0px"
   viewBox="0 0 122.88 108.95"
   style="enable-background:new 0 0 122.88 108.95"
   xml:space="preserve"
   sodipodi:docname="button-icon.svg"
   inkscape:version="1.0.2 (e86c870879, 2021-01-15, custom)"><metadata
     id="metadata13"><rdf:RDF><cc:Work
         rdf:about=""><dc:format>image/svg+xml</dc:format><dc:type
           rdf:resource="http://purl.org/dc/dcmitype/StillImage" /><dc:title></dc:title></cc:Work></rdf:RDF></metadata><defs
     id="defs11" /><sodipodi:namedview
     pagecolor="#ffffff"
     bordercolor="#666666"
     borderopacity="1"
     objecttolerance="10"
     gridtolerance="10"
     guidetolerance="10"
     inkscape:pageopacity="0"
     inkscape:pageshadow="2"
     inkscape:window-width="1920"
     inkscape:window-height="1017"
     id="namedview9"
     showgrid="false"
     inkscape:zoom="5.5166662"
     inkscape:cx="42.769469"
     inkscape:cy="59.571872"
     inkscape:window-x="-8"
     inkscape:window-y="-8"
     inkscape:window-maximized="1"
     inkscape:current-layer="g6" /><style
     type="text/css"
     id="style2">.st0{fill-rule:evenodd;clip-rule:evenodd;}</style><g
     id="g6"><path
       class="st0"
       d="m 23.01,0 h 76.87 c 6.33,0 12.08,2.59 16.25,6.76 4.17,4.17 6.76,9.92 6.76,16.25 v 62.93 c 0,6.33 -2.59,12.08 -6.76,16.25 -4.17,4.17 -9.92,6.76 -16.25,6.76 H 23.01 c -6.33,0 -12.08,-2.59 -16.25,-6.76 C 2.59,98.02 0,92.27 0,85.94 V 23.01 C 0,16.68 2.59,10.93 6.76,6.76 10.92,2.59 16.68,0 23.01,0 Z M 4.95,77.41 c 0.86,3.23 2.57,6.12 4.86,8.41 3.38,3.38 8.05,5.49 13.19,5.49 h 76.87 c 0.2,0 0.41,0 0.61,-0.01 l 1.27,-0.09 c 4.38,-0.44 8.34,-2.43 11.3,-5.39 2.3,-2.3 4,-5.19 4.86,-8.41 v -54.4 c 0,-4.96 -2.03,-9.47 -5.31,-12.75 C 109.33,6.99 104.81,4.95 99.85,4.95 H 23.01 c -4.96,0 -9.48,2.03 -12.75,5.3 -3.27,3.27 -5.3,7.79 -5.3,12.75 v 54.41 z"
       id="path4"
       sodipodi:nodetypes="ssssssssssscscsssccscsssssscc" /></g></svg>
