<?xml version="1.0" encoding="utf-8"?><svg version="1.1" id="Layer_1" xmlns="http://www.w3.org/2000/svg" xmlns:xlink="http://www.w3.org/1999/xlink" x="0px" y="0px" viewBox="0 0 122.88 108.95" style="enable-background:new 0 0 122.88 108.95" xml:space="preserve"><style type="text/css">.st0{fill-rule:evenodd;clip-rule:evenodd;}</style><g><path class="st0" d="M23.01,0h76.87c6.33,0,12.08,2.59,16.25,6.76c4.17,4.17,6.76,9.92,6.76,16.25v62.93 c0,6.33-2.59,12.08-6.76,16.25c-4.17,4.17-9.92,6.76-16.25,6.76H23.01c-6.33,0-12.08-2.59-16.25-6.76C2.59,98.02,0,92.27,0,85.94 V23.01c0-6.33,2.59-12.08,6.76-16.25C10.92,2.59,16.68,0,23.01,0L23.01,0z M38.47,33.8h20.93v6.23H46.96v5.06H57.6v5.87H46.96 v11.81h-8.49V33.8L38.47,33.8z M63.45,41.77h7.09v3.42c1.06-1.4,2.12-2.4,3.21-3c1.08-0.6,2.4-0.9,3.95-0.9 c2.1,0,3.74,0.66,4.94,1.99c1.19,1.32,1.78,3.37,1.78,6.14v13.35h-7.65V51.22c0-1.32-0.23-2.25-0.69-2.8 c-0.46-0.55-1.1-0.82-1.93-0.82c-0.91,0-1.66,0.37-2.23,1.11c-0.57,0.74-0.85,2.06-0.85,3.98v10.09h-7.61V41.77L63.45,41.77z M4.95,77.41c0.86,3.23,2.57,6.12,4.86,8.41c3.38,3.38,8.05,5.49,13.19,5.49h76.87c0.2,0,0.41,0,0.61-0.01l1.27-0.09 c4.38-0.44,8.34-2.43,11.3-5.39c2.3-2.3,4-5.19,4.86-8.41V23.01c0-4.96-2.03-9.47-5.31-12.75c-3.27-3.27-7.79-5.31-12.75-5.31 H23.01c-4.96,0-9.48,2.03-12.75,5.3c-3.27,3.27-5.3,7.79-5.3,12.75V77.41L4.95,77.41z"/></g></svg>